<svg width="32" height="32" viewBox="0 0 32 32" fill="none" xmlns="http://www.w3.org/2000/svg">
  <!-- Background: Sunset Sky Gradient -->
  <defs>
    <radialGradient id="sunsetGradient" cx="50%" cy="50%" r="50%" fx="50%" fy="50%">
      <stop offset="0%" stop-color="#FFD700"/> <!-- Bright yellow/orange for sunset center -->
      <stop offset="30%" stop-color="#FFA500"/> <!-- Orange -->
      <stop offset="60%" stop-color="#FF4500"/> <!-- Red-orange -->
      <stop offset="80%" stop-color="#8B0000"/> <!-- Dark red -->
      <stop offset="100%" stop-color="#4682B4"/> <!-- Steel blue for deep sky -->
    </radialGradient>
  </defs>
  <circle cx="16" cy="16" r="16" fill="url(#sunsetGradient)"/>

  <!-- Stars in the sky -->
  <circle cx="5" cy="5" r="0.3" fill="#FFFFFF" opacity="0.7"/>
  <circle cx="24" cy="4" r="0.2" fill="#FFFFFF" opacity="0.6"/>
  <circle cx="11" cy="8" r="0.3" fill="#FFFFFF" opacity="0.8"/>
  <circle cx="28" cy="9" r="0.2" fill="#FFFFFF" opacity="0.7"/>
  <circle cx="15" cy="3" r="0.2" fill="#FFFFFF" opacity="0.5"/>

  <!-- Pine Trees (Silhouettes) -->
  <path d="M0 32 L4 21 L7 24 L9 19 L12 23 L16 16 L20 23 L23 19 L25 24 L28 21 L32 32 Z" fill="#065f46"/>
  <path d="M3 32 L5 24 L8 27 L11 21 L13 25 L16 19 L19 25 L21 21 L24 27 L27 24 L29 32 Z" fill="#047857" opacity="0.8"/>

  <!-- Campfire -->
  <circle cx="16" cy="28" r="2" fill="#FF8C00"/>
  <circle cx="16" cy="28" r="1.3" fill="#FFD700"/>
  <path d="M15 26 L17 26 L16 25 Z" fill="#FF4500"/>

  <!-- People around campfire -->
  <circle cx="12" cy="28" r="1" fill="#2C3E50"/>
  <circle cx="20" cy="28" r="1" fill="#2C3E50"/>

  <!-- Dogs -->
  <path d="M10 29 L11 28 L12 29 Z" fill="#6B4226"/> <!-- Small dog -->
  <path d="M22 29 L23 28 L24 29 Z" fill="#A0522D"/> <!-- Large dog -->

  <!-- Hidden creatures -->
  <!-- Bear on left -->
  <g fill="#2C3E50" opacity="0.5">
    <ellipse cx="5" cy="19" rx="0.7" ry="1" fill="#2C3E50"/>
    <circle cx="5" cy="17" r="0.4" fill="#2C3E50"/>
  </g>
  <!-- Bigfoot on right -->
  <g fill="#2C3E50" opacity="0.5">
    <ellipse cx="27" cy="19" rx="0.7" ry="1" fill="#2C3E50"/>
    <circle cx="27" cy="17" r="0.4" fill="#2C3E50"/>
  </g>
</svg>
